<svg xmlns="http://www.w3.org/2000/svg" xmlns:xlink="http://www.w3.org/1999/xlink" style="margin:auto;background:rgba(255,255,255,0);display:block;" width="200px" height="200px" viewBox="0 0 100 100" preserveAspectRatio="xMidYMid">
 <g transform="translate(50 50)">  <g transform="translate(-19 -19) scale(0.6)"> <g transform="rotate(22.4175)">
<animateTransform attributeName="transform" type="rotate" values="0;30" keyTimes="0;1" dur="0.2s" begin="0s" repeatCount="indefinite"></animateTransform><path d="M31.359972760794346 21.46047782418268 L38.431040572659825 28.531545636048154 L28.531545636048154 38.431040572659825 L21.46047782418268 31.359972760794346 A38 38 0 0 1 16.42829416074459 34.26530535349197 L16.42829416074459 34.26530535349197 L19.016484611769798 43.92456361638265 L5.493523043722839 47.54803024781794 L2.90533259269763 37.88877198492726 A38 38 0 0 1 -2.905332592697617 37.88877198492726 L-2.905332592697617 37.88877198492726 L-5.493523043722822 47.54803024781795 L-19.016484611769776 43.924563616382656 L-16.42829416074457 34.265305353491975 A38 38 0 0 1 -21.46047782418268 31.35997276079435 L-21.46047782418268 31.35997276079435 L-28.531545636048154 38.431040572659825 L-38.43104057265982 28.531545636048158 L-31.359972760794346 21.460477824182682 A38 38 0 0 1 -34.26530535349197 16.428294160744592 L-34.26530535349197 16.428294160744592 L-43.92456361638265 19.0164846117698 L-47.54803024781794 5.493523043722842 L-37.88877198492726 2.9053325926976323 A38 38 0 0 1 -37.88877198492726 -2.9053325926976066 L-37.88877198492726 -2.9053325926976066 L-47.54803024781795 -5.49352304372281 L-43.924563616382656 -19.01648461176977 L-34.265305353491975 -16.428294160744567 A38 38 0 0 1 -31.35997276079435 -21.460477824182675 L-31.35997276079435 -21.460477824182675 L-38.431040572659825 -28.531545636048147 L-28.53154563604818 -38.4310405726598 L-21.4604778241827 -31.35997276079433 A38 38 0 0 1 -16.428294160744564 -34.26530535349198 L-16.428294160744564 -34.26530535349198 L-19.01648461176977 -43.92456361638266 L-5.493523043722842 -47.54803024781794 L-2.905332592697635 -37.88877198492726 A38 38 0 0 1 2.905332592697621 -37.88877198492726 L2.905332592697621 -37.88877198492726 L5.493523043722824 -47.54803024781795 L19.01648461176975 -43.92456361638267 L16.42829416074455 -34.26530535349198 A38 38 0 0 1 21.460477824182686 -31.359972760794342 L21.460477824182686 -31.359972760794342 L28.531545636048158 -38.43104057265982 L38.4310405726598 -28.53154563604818 L31.35997276079433 -21.4604778241827 A38 38 0 0 1 34.26530535349196 -16.428294160744596 L34.26530535349196 -16.428294160744596 L43.92456361638264 -19.016484611769812 L47.54803024781794 -5.493523043722886 L37.88877198492726 -2.905332592697671 A38 38 0 0 1 37.88877198492726 2.9053325926976186 L37.88877198492726 2.9053325926976186 L47.54803024781795 5.493523043722821 L43.92456361638267 19.01648461176975 L34.26530535349199 16.42829416074455 A38 38 0 0 1 31.359972760794346 21.460477824182686 M0 -29A29 29 0 1 0 0 29 A29 29 0 1 0 0 -29" fill="#f47e60"></path></g></g> <g transform="translate(19 19) scale(0.6)"> <g transform="rotate(22.5825)">
<animateTransform attributeName="transform" type="rotate" values="30;0" keyTimes="0;1" dur="0.2s" begin="-0.1s" repeatCount="indefinite"></animateTransform><path d="M-31.35997276079435 -21.460477824182675 L-38.431040572659825 -28.531545636048147 L-28.53154563604818 -38.4310405726598 L-21.4604778241827 -31.35997276079433 A38 38 0 0 1 -16.428294160744564 -34.26530535349198 L-16.428294160744564 -34.26530535349198 L-19.01648461176977 -43.92456361638266 L-5.493523043722842 -47.54803024781794 L-2.905332592697635 -37.88877198492726 A38 38 0 0 1 2.905332592697621 -37.88877198492726 L2.905332592697621 -37.88877198492726 L5.493523043722824 -47.54803024781795 L19.01648461176975 -43.92456361638267 L16.42829416074455 -34.26530535349198 A38 38 0 0 1 21.460477824182686 -31.359972760794342 L21.460477824182686 -31.359972760794342 L28.531545636048158 -38.43104057265982 L38.4310405726598 -28.53154563604818 L31.35997276079433 -21.4604778241827 A38 38 0 0 1 34.26530535349198 -16.428294160744564 L34.26530535349198 -16.428294160744564 L43.92456361638266 -19.01648461176977 L47.54803024781794 -5.493523043722844 L37.88877198492726 -2.905332592697637 A38 38 0 0 1 37.88877198492726 2.9053325926976186 L37.88877198492726 2.9053325926976186 L47.54803024781795 5.493523043722821 L43.92456361638267 19.01648461176975 L34.26530535349199 16.42829416074455 A38 38 0 0 1 31.359972760794346 21.460477824182686 L31.359972760794346 21.460477824182686 L38.431040572659825 28.531545636048158 L28.53154563604818 38.4310405726598 L21.460477824182703 31.35997276079433 A38 38 0 0 1 16.428294160744567 34.265305353491975 L16.428294160744567 34.265305353491975 L19.016484611769776 43.924563616382656 L5.493523043722847 47.54803024781794 L2.905332592697639 37.88877198492726 A38 38 0 0 1 -2.905332592697616 37.88877198492726 L-2.905332592697616 37.88877198492726 L-5.4935230437228215 47.54803024781795 L-19.01648461176978 43.924563616382656 L-16.428294160744574 34.26530535349197 A38 38 0 0 1 -21.46047782418263 31.359972760794385 L-21.46047782418263 31.359972760794385 L-28.531545636048097 38.43104057265987 L-38.431040572659796 28.531545636048186 L-31.35997276079433 21.460477824182703 A38 38 0 0 1 -34.26530535349193 16.42829416074466 L-34.26530535349193 16.42829416074466 L-43.92456361638261 19.016484611769883 L-47.54803024781794 5.493523043722901 L-37.88877198492726 2.9053325926976754 A38 38 0 0 1 -37.88877198492727 -2.90533259269758 L-37.88877198492727 -2.90533259269758 L-47.54803024781795 -5.493523043722781 L-43.924563616382656 -19.016484611769776 L-34.265305353491975 -16.428294160744574 A38 38 0 0 1 -31.359972760794346 -21.46047782418268 M0 -29A29 29 0 1 0 0 29 A29 29 0 1 0 0 -29" fill="#abbd81"></path></g></g></g>
</svg>